<?xml version="1.0" standalone="no"?>
<!DOCTYPE svg PUBLIC "-//W3C//DTD SVG 20010904//EN"
 "http://www.w3.org/TR/2001/REC-SVG-20010904/DTD/svg10.dtd">
<svg version="1.0" xmlns="http://www.w3.org/2000/svg"
 width="296.000000pt" height="257.000000pt" viewBox="0 0 296.000000 257.000000"
 preserveAspectRatio="xMidYMid meet">
<metadata>
Created by potrace 1.15, written by Peter Selinger 2001-2017
</metadata>
<g transform="translate(0.000000,257.000000) scale(0.100000,-0.100000)"
fill="#000000" stroke="none">
<path d="M1080 2551 c-92 -12 -261 -59 -329 -92 -23 -11 -51 -24 -64 -29 -24
-11 -31 -15 -122 -74 -239 -156 -423 -400 -513 -681 -44 -136 -52 -195 -52
-386 0 -253 29 -380 131 -579 59 -114 60 -116 125 -205 159 -217 404 -376 704
-458 140 -38 372 -46 541 -18 139 23 382 119 494 195 79 54 195 160 257 235
85 102 129 170 184 288 25 54 50 106 55 115 5 10 9 27 9 39 0 17 8 13 58 -29
31 -28 71 -58 89 -69 17 -10 51 -30 76 -44 62 -37 145 -61 192 -57 39 3 40 4
39 39 -1 23 -14 54 -37 89 -21 30 -37 62 -37 70 0 8 11 39 25 68 14 30 25 69
25 87 0 47 -28 55 -198 52 -115 -2 -144 1 -152 12 -4 8 -9 95 -9 193 0 99 -3
183 -6 188 -3 5 9 19 27 32 49 34 151 129 165 152 7 12 12 42 13 69 0 36 -4
47 -16 47 -8 0 -29 13 -45 29 -23 24 -29 38 -29 75 0 24 -4 47 -9 50 -9 6 -18
-18 -60 -159 -25 -82 -75 -152 -97 -135 -7 7 -18 28 -25 48 -42 132 -171 342
-282 459 -127 134 -327 268 -472 318 -152 51 -237 66 -415 70 -96 2 -204 0
-240 -4z m-167 -736 c231 -52 321 -78 457 -132 110 -44 337 -92 470 -99 180
-10 325 22 462 104 96 57 126 37 182 -118 14 -39 26 -87 26 -106 l0 -34 -71 0
c-114 0 -176 -37 -389 -232 -52 -48 -98 -88 -102 -88 -14 0 -19 41 -9 76 l10
37 -33 -32 -33 -32 -24 38 -24 38 -8 -49 c-16 -98 -68 -136 -129 -94 -61 41
-141 96 -208 143 -36 25 -141 97 -235 161 -93 63 -197 135 -230 159 -33 25
-77 55 -99 68 -21 12 -48 28 -60 35 -14 9 -40 11 -81 7 -53 -5 -64 -10 -103
-48 -47 -46 -116 -176 -128 -242 l-7 -40 45 60 c57 76 83 100 132 120 61 26
65 11 28 -103 -40 -122 -42 -195 -8 -267 33 -72 62 -92 184 -129 42 -13 100
-29 127 -35 88 -19 285 -30 437 -25 178 7 198 0 137 -44 -24 -18 -47 -32 -52
-32 -4 0 -6 -4 -2 -9 3 -6 21 -4 45 4 22 8 43 14 46 14 3 -1 29 11 59 26 35
16 72 46 102 82 l47 55 47 -51 47 -51 74 0 c48 1 80 6 92 15 18 14 14 15 -45
15 -72 0 -118 20 -89 40 8 5 29 10 45 10 62 1 262 57 326 92 55 31 69 62 69
162 0 82 1 87 24 98 37 16 54 4 58 -39 3 -43 -16 -208 -31 -268 -6 -22 -11
-60 -11 -83 0 -55 -23 -105 -56 -122 -20 -11 -39 -11 -107 -1 -94 15 -293 15
-346 1 -20 -5 -48 -11 -63 -14 -15 -2 -64 -16 -110 -30 -199 -60 -302 -74
-482 -64 -116 7 -273 33 -346 58 -14 4 -50 16 -80 25 -113 35 -262 116 -350
191 -28 24 -55 44 -60 44 -5 0 -19 17 -31 37 -33 52 -40 230 -13 335 10 40 19
75 19 78 6 36 47 128 79 179 29 45 90 89 159 112 69 24 88 24 220 -6z m85
-364 c55 -20 126 -67 120 -79 -37 -69 -49 -112 -45 -150 6 -51 27 -77 76 -93
66 -22 152 -3 179 40 17 29 34 27 110 -16 123 -68 204 -125 194 -135 -6 -6
-40 -5 -93 1 -46 5 -163 13 -261 16 -190 6 -255 19 -353 73 -71 39 -95 79 -95
161 1 95 14 141 50 174 36 32 49 33 118 8z m1372 -146 c19 -30 20 -40 10 -68
-6 -19 -21 -43 -33 -54 -64 -57 -272 -138 -339 -131 -49 5 -46 28 13 78 51 43
51 43 79 27 39 -23 93 -22 115 3 17 19 17 53 1 91 -5 11 7 26 40 52 60 47 86
47 114 2z"/>
</g>
</svg>
